# xmcd
#
# Track frame offsets:
#	150
#	4937
#	18211
#	31379
#	42449
#	55809
#	69224
#	74808
#	86507
#	96405
#	109752
#	121300
#	134909
#
# Disc length: 1827 seconds
#
# Revision: 0
# Processed by: cddbd v1.5.2PL0 Copyright (c) Steve Scherf et al.
# Submitted via: dBpowerAMP V4.0
#
DISCID=b707210d
DTITLE=Ray McAuley - Somrtimes Good Sometimes Bad
DYEAR=1977
DGENRE=Country
TTITLE0=Country Music
TTITLE1=Running From The Rain
TTITLE2=Somrtimes Good Sometimes Bad
TTITLE3=I Ain't Never
TTITLE4=Diesel Cowboy
TTITLE5=Slide Off Of Your Satin Sheets
TTITLE6=Country Music
TTITLE7=All Time Sunshine Woman
TTITLE8=Bar Room Blues
TTITLE9=Ramblin' Foot
TTITLE10=Good Woman Blues
TTITLE11=Blue Eyes Crying In The Rain
TTITLE12=Country Music
EXTD=
EXTT0=
EXTT1=
EXTT2=
EXTT3=
EXTT4=
EXTT5=
EXTT6=
EXTT7=
EXTT8=
EXTT9=
EXTT10=
EXTT11=
EXTT12=
PLAYORDER=
